<svg xmlns="http://www.w3.org/2000/svg" viewBox="0 0 434.85 434.84"><title>london</title><path d="M434.84,217.48V0H0V434.84H434.84Zm-18.6,4.13h4.68v1.07l-1.09,1.11,1.07,1.12c0,.26,0,.52,0,.78l-9.62-.18c-.24.75-.49,1.48-.74,2.22.21.75.42,1.5.62,2.25l1.71.07c0,.52,0,1-.07,1.56s0,1-.07,1.57L411,233.1c-.26.74-.53,1.47-.8,2.2l.54,2.27,11,.77c0,.36-.08.73-.12,1.09l-3.38-.25q-1.14,2.13-2.32,4.22l2.13.2c0,.17,0,.34-.05.51l-10.82-1-.09.9-1.39-.14-.08.77-1-.11c0,.32-.07.63-.1.94l-3.45-.36c0,.15,0,.31,0,.46l3.45.37c0,.32-.07.63-.11.94l1,.12-.09.77,1.39.16c0,.29-.06.59-.1.89l8.88,1.06a3.43,3.43,0,0,0-.52.23c-.09.75-.18,1.5-.28,2.25a8.35,8.35,0,0,0,3.38,1.57l-.56-.08c0,.14,0,.28,0,.41l-.39-.05.06-.41-.69-.09c0,.13,0,.27-.05.4L416,254l.06-.4-.69-.09c0,.13,0,.26-.05.4l-.38,0c0-.14,0-.27.05-.41l-.69-.09c0,.14,0,.27-.05.4l-.38-.05c0-.13,0-.27.05-.4l-.68-.09-.06.4-.38,0c0-.14,0-.27.05-.4l-.68-.1c0,.26-.07.52-.11.78l-1.14-.15-.06.39-1.37-.19c0,.24-.07.48-.1.72l1.37.19c-.06.44-.13.88-.19,1.32l1.14.17c0,.15-.05.3-.07.46l-.46-.13-.44.28-1.87-.52-.75.94-.82.78-.94-.07a52.78,52.78,0,0,1-1.16,5.55,2.22,2.22,0,0,0,1,2.31l-.3.93,1.71.57c-.19,1-.38,2-.59,2.93l1.37-.73c-.08.25-.17.51-.26.76l-.62.36c-.17.5-.35,1-.53,1.5l.24.64c-.47,1.31-1,2.62-1.46,3.93.11.29.21.58.32.86l1.6.62-.12.31,1.12.43c-.2.52-.41,1-.61,1.55l.15-.58-.54-.14c-.22.87-.45,1.74-.68,2.61l-4.34-1.76c-.25.63-.51,1.26-.77,1.88l-.64-.26c-.24.58-.48,1.16-.73,1.74l.79.34c-.34.8-.69,1.6-1,2.4l2.28,1-.15.34-.35.16-.81-.36-.19.42-1.31-.58-.23.11-.5-.22c-.52.52-1.05,1-1.58,1.54-.07.71-.15,1.43-.23,2.14l.53.3-.05.12.32.15-.07.14.1,0,0-.09.36.17-.08.18,0,.16.46.21,0,.2.34.16-.07.15a.14.14,0,0,0,.16-.07l.45.22-.1.23.29.14c-.05.09-.09.19-.14.29l.16.07.06-.14.12.06.05-.1.37.17-.08.17.32.15-.1.21.24.12,0,.1.12.06.08,0,2.71,1.29-.1.21L400.76,295q-1,2.19-2.13,4.35l-1.64-.82c-.52,1-1.05,2.07-1.59,3.1l.82.43-.56,1.05-3.54-1.88-.34.63-.9-.48c-.07.11-.13.23-.19.34l.91.49c-.09.17-.18.34-.28.51l-.9-.49-.19.35.91.49-.93,1.7.3.17c-.08.13-.15.26-.22.4l.4.22.22-.4.9.5c-.35.63-.7,1.27-1.06,1.9l-6.35-3.58-1.19,1.39-.08.14-1-.56-1.1,1.51-.24.69,1,.59-.36.61-.66-.38-.54.56-.39.91.68.42-.24.39L380,310l-.14.11-.08.22.38.23c-.14.24-.29.48-.44.72l5.91,3.65c-.83,1.35-1.69,2.7-2.55,4-7.9-4.69-16.65-8.74-21-6.95a.43.43,0,0,0-.17.13l-.07.22c.34,5.51,8.88,13.22,16.75,19.14-.43.58-.85,1.17-1.29,1.75L377,333c-1,1.06-1.92,2.11-2.9,3.16L364,328.36q-.94.81-1.89,1.59c-.68.85-1.35,1.7-2,2.54l-3.79-3.09c-1.75,2.13-3.53,4.24-5.35,6.31l4.64,4.08c-.93,1-1.87,2.1-2.82,3.13l2.2,2c-.84.92-1.69,1.83-2.54,2.73l1.74,1.66c-.47.5-.95,1-1.43,1.49l-8.63-8.33c-.42.43-.84.87-1.27,1.3l-2.45-2.41-.74.27c-.69.7-1.39,1.39-2.09,2.08l-.33.8,1.68,1.73-.39.37-.58,1,7.65,8q-2.48,2.38-5,4.68l1,1.08-.57.52c-.18-.19-.35-.39-.52-.58l-2.67,1.45c-2.11,1.84-4.26,3.65-6.44,5.41l2.77,3.42c-1,.84-2.09,1.67-3.15,2.5-.7-.91-1.41-1.81-2.11-2.71-1.28,1-2.57,2-3.88,3-.43-.59-.86-1.17-1.3-1.75q-1.93,1.44-3.9,2.85l-1.48,1.88,1,1.4c-1.08.75-2.17,1.5-3.27,2.23l2.88,4.3-1,.69q-1.32-2-2.66-4l-.84-.06c-.76-1.14-2.69-1.11-4.3-.08a3,3,0,0,0-1.21,3.69l2.07,3.37a1.5,1.5,0,0,0-.25,1.86l1,1.6q-3.18,1.94-6.44,3.78l2.71,4.79-1.74,1q-1.5-2.69-3-5.37l-1.76,1c-.55-1-1.1-2-1.64-3l-.86.08L296,396l-.64.72,1.11,2.14-.54.27-.94.8,2.16,4.27-1.11.56-1.11-2.23c-1.11.56-2.22,1.1-3.34,1.64.29.59.57,1.18.85,1.77l-1.3.62-.88.65.93,2a204.76,204.76,0,0,1-21.86,7c-1.11.21-2.23.42-3.34.61q-1.71-9.72-3.4-19.44l-1.66.28c-.05-.3-.09-.59-.15-.89l-3.55.56c.06.37.12.75.17,1.12q-3.36.51-6.73.9l2.4,20.39c-6.45,1.12-13,2-19.63,2.47-.12-3.51-.25-7-.37-10.53l-3.23.08,0-1.51c-2,0-3.93.06-5.89.05v.9c-.93,0-1.85,0-2.78,0l0,.83c-1.34,0-2.67-.06-4-.11l-.36,10.28c-1.91-.07-3.83-.16-5.73-.27l0,.53-1-.07c0-.4.06-.8.08-1.2-2.53-.17-5.07-.37-7.59-.61,0,.23-.05.45-.07.68l-.81-.08c0,.35-.07.7-.11,1.05l-1.54-.16.66-6.24c-1.85-.2-3.71-.41-5.56-.66l.15-1.12-1.23-.16L193.8,415l-1.06-.15c.08-.52.15-1,.22-1.57l-1-.15,3.6-24.84-.47-.07c0-.23.07-.45.1-.68l-1.08-.16.12-.82,1,.15c0-.2.06-.4.08-.6q-4.35-.64-8.66-1.47l-.12.59.77.15-.24,1.26c-.87-.16-1.75-.33-2.62-.51q-2.44,12.17-4.9,24.32l-1.73-.74H176.7c-.06.3-.12.59-.19.89l-1.46-.32q2.38-10.83,4.79-21.66l-.29-.07.29-1.3.21.05.09-.4q-3.58-.79-7.14-1.71l-.12.47.5.13c-.07.3-.15.59-.22.89l-1.48-.39-.48,1.81-.59.32q-2.66,10-5.32,20l-2.39-.65c-.11.41-.22.82-.34,1.23l-1-.27c-.22.79-.44,1.58-.67,2.37l.89.25c-.09.32-.17.64-.26.95l-1.14-.32-.54,1.91-.66-.4-.09,0c.08-.2.16-.4.23-.59l-.29-.15c.17-.57.33-1.14.5-1.71l-2-.59c0-.16.1-.32.14-.48l-1.76-.53-.21.67-1.76-.55.15-.47-2.24-.71.48-1.48c-1.11-.36-2.21-.73-3.32-1.11q3.57-10.38,7.12-20.77l-1.33-.76.51-1.46.28.09.24-.66q-2.94-1.21-5.84-2.51l-2.91-.84-.34.85,1.56.62c-.14.42-.28.85-.41,1.27-1.24-.3-2.47-.62-3.7-.94l-5.58,13.59a2.11,2.11,0,0,0-1.77.69l-.86-.46c-.35.63-.69,1.27-1,1.91l-.69-.38-.52.95-1.62-.9-.24-.66-1.39-.79-.67.13-3.62-2.12-.9.16-.39.63c-1.06-.5-2.13-1-3.18-1.51-.27.54-.54,1.08-.8,1.62l-.68-.42,2.65-4.22-1.72-1.08.37-.58-1.59-1c-.15.24-.31.48-.47.72l-2.18-1.44-1.38,2.07-.31-.2c0-.13-.07-.25-.1-.38l.49-.74-.27-.18.46-.92.23-.34,0-.08c.89-1.77,1.77-3.55,2.65-5.32a5.6,5.6,0,0,0-.47-2.21l.34-.62c-1-.56-2-1.13-3-1.71-.11.21-.23.41-.35.62l.59.33c-.66,1.17-1.32,2.34-2,3.51l-2.2,1.06-2.42,4.21h0l-.15.22h-.1l-.08.11,0,.08-1.34,1.88-.2-.12c.52-.73,1-1.47,1.57-2.2-1.32-.93-2.62-1.89-3.92-2.85l1.1-1.47c-.94-.7-1.86-1.4-2.78-2.11l-.56.73-.94-.73,2.46-3.16-.57-.44.64-.81-.31-.24-.63.81-.46-.36.64-.81-.31-.24-.64.81-1.52-1.22-.21.27-.35-.29-.29.36.35.28-.65.81-1.68-1.38,4.63-5.63-1.17-1.41-.12-.11.72-.86-1.3-1.35-.64-.34c-.25.29-.5.59-.76.88l-.53-.46.49-.58-.46-.63-.83-.54-.53.6-.34-.31.28-.32-.09-.16-.2-.11-.29.33-.63-.56-4.62,5.19C91,365,89.84,364,88.67,362.88c6-7,11.5-14.88,10.49-19.43a.5.5,0,0,0-.11-.2l-.2-.09c-5.48-.63-14.56,6.44-21.75,13.16-.51-.52-1-1-1.5-1.57l.25-.23q-1.32-1.69-2.61-3.4l9.48-8.63c-.42-.71-.83-1.43-1.24-2.14-.72-.81-1.44-1.63-2.14-2.45l3.7-3.2q-2.7-3.12-5.28-6.36l-4.83,3.86c-.88-1.1-1.74-2.2-2.6-3.31L68,330.7c-.76-1-1.51-2-2.26-3l-1.93,1.43c-.41-.56-.82-1.11-1.22-1.67l9.7-7.05L71.2,319l2.8-2c0-.26-.09-.52-.13-.78-.57-.8-1.13-1.61-1.69-2.42l-.74-.46-2,1.35-.31-.45-.84-.74-9.18,6.16c-1.27-1.9-2.52-3.82-3.73-5.76l-1.24.77c-.14-.21-.27-.43-.41-.65l.66-.41q-.49-1.44-1-2.88c-1.45-2.4-2.85-4.82-4.21-7.28l-3.85,2.13c-.65-1.17-1.29-2.34-1.92-3.53,1-.53,2-1.07,3-1.61-.76-1.43-1.51-2.88-2.24-4.33l1.95-1c-.67-1.31-1.31-2.63-1.95-4l2.49-.86-.54-1.59.86-.29Q46.51,286.7,46,285l-1.08.34q-1-3.24-2-6.5l-3.56,1a3.05,3.05,0,0,0-3.28-1.58l-3.67,1.46a1.52,1.52,0,0,0-1.8-.57l-1.74.68c-.9-2.31-1.77-4.65-2.61-7l-5.18,1.83-.66-1.88,5.81-2c-.22-.63-.44-1.27-.65-1.9l3.26-1.09c0-.29.05-.58.07-.86-.34-1-.67-2.07-1-3.1l-.29-.37.37-.07c-.2-1.05-.4-2.11-.59-3.17l1.48-.27c-.34-1.94-.67-3.88-1-5.82l-.9.14c-.14-.92-.27-1.84-.4-2.75l-.83.11c-.18-1.32-.36-2.65-.52-4l-10.21,1.26q-.35-2.85-.63-5.71l-.52.06c0-.34-.07-.67-.1-1l1.2-.12c-.23-2.52-.43-5.06-.59-7.59l-.68,0c0-.27,0-.54,0-.81l-1.05.06-.09-1.55,6.27-.33c-.1-1.86-.17-3.73-.22-5.59l1.13,0,0-1.24-1.13,0,0-1.06,1.59,0c0-.35,0-.71,0-1.06l25.11-.34v-.47h.68c0-.36,0-.73,0-1.1h.84v1h.61c0-2.93,0-5.87.09-8.8l-.6,0,0,.79-1.28,0c0-.89.06-1.78.09-2.67l-24.78-1c.15-.61.3-1.22.46-1.83-.06-.35-.12-.71-.17-1.06l-.91,0,.09-1.5,22.14,1.34c0-.1,0-.2,0-.3l1.33.09v.21l.4,0q.23-3.66.57-7.31l-.48,0c0,.17,0,.35-.05.52l-.91-.09c0-.5.09-1,.15-1.51l-1.86-.19L41.2,198,20.63,195.9c.08-.82.17-1.64.26-2.46l-1.26-.14.12-1L17.3,192c0,.31-.07.61-.11.92l-1-.12c0-.39.09-.77.14-1.16l-2.25-.27c.05-.37.09-.73.14-1.1l2.94.37c.08-.7.17-1.39.27-2.09l.49.07.24-1.83-.69-.09c.08-.61.17-1.22.26-1.83l.49.07c.12-.77.23-1.55.36-2.32l1.53.24q.27-1.73.57-3.45l21.64,3.77c.17-.48.36-1,.54-1.44l1.52.28c0,.1,0,.2,0,.3l.7.12q.73-3.09,1.56-6.16c.12-1,.24-2,.37-3l-.89-.21c-.13.55-.25,1.1-.37,1.65l-1.32-.22c.1-1.26.22-2.53.35-3.79l-23.31-5.52.24-1,2.45.59c.13-.54.26-1.08.4-1.62l.78.2c.13-.54.27-1.08.41-1.61l1.07.27.6-2.29-.58-.16c.22-.84.45-1.68.68-2.51l.59.16c.64-2.32,1.33-4.63,2.05-6.93l-2.6-.81c.19-.62.38-1.23.58-1.83l-3.54-1.14c.17-.46.35-.92.52-1.37l1,.32c.16-.46.31-.92.46-1.39l.67.23c.28-.84.57-1.68.86-2.52l.54-.33,13.48,4.24a5.69,5.69,0,0,0,2.11-.81l.66.24c.4-1.1.8-2.19,1.21-3.28l-.66-.25-.24.63-3.78-1.41-1.39-2-7.16-2.73c.36-.94.72-1.87,1.09-2.8l-1.5-.6.72-1.8,1,.42c.66-1.64,1.35-3.27,2.05-4.9l6.39,2.76c.48-1.11,1-2.22,1.47-3.32l-6.53-3,1-2.09-1.92-.89c.64-1.19,1.3-2.36,2-3.54l1.22.59c.42-.87.85-1.75,1.29-2.62l-.4-.2c.21-.21.42-.41.62-.62l.06-.08.52.37.75-.87c.06-.14.13-.27.19-.41l-.54-.38.25-.35.36.25.35-.32c.1-.18.2-.36.29-.54l-.36-.27.16-.22.2.14.09-.07.06-.12-.2-.15.3-.42-1-.75q3.66-5.89,7.68-11.52l6,5,.52-.09,1.49,1.25,1.07-.56,1.07-.38.82.44s2.23-3.39,3.32-4.59a2.18,2.18,0,0,0,0-2.51l.66-.73-1.6-1.47.54-.58-.8-.73,1.26-1.36.71-.07c.36-.39.73-.77,1.1-1.16l0-.68q1.45-1.52,2.94-3l.06-.91-1.21-1.22.23-.23-.84-.85c.9-.9,1.81-1.79,2.72-2.67,1.16,1.19,2.31,2.39,3.46,3.58l1.47-1.4.47.5,1.38-1.29-.58-.63,1.92-1.78L76.94,77.8l.27-.24h.39l.6.66.34-.31L79.49,79h.27l.36.4,2.06-.76,1.09-1.87-.37-.49.1-.08-.23-.27.12-.1-.07-.08-.07.07-.27-.31.15-.13,0-.15-.33-.39,0-.2-.24-.28.13-.11h-.17l-.33-.39.19-.16-.21-.25L82,73.2l-.11-.13-.12.1-.09-.1-.08.07-.27-.31.15-.12-.23-.27.17-.15-.17-.2,0-.1-.09-.11h-.09l-2-2.28.18-.15L81.47,72q1.84-1.58,3.72-3.11l1.16,1.42c.9-.74,1.8-1.47,2.71-2.19l-.57-.72.94-.74c.82,1.06,1.65,2.11,2.47,3.16l.56-.44.64.81.3-.24-.63-.81.46-.36.63.82.31-.24-.63-.82,1.55-1.18-.21-.27.36-.28L95,66.47l-.37.27L94,65.92l1.75-1.3,4.34,5.85,1.65-.79.13-.09.66.91,1.63-.94c.16-.18.32-.36.49-.53-.23-.32-.45-.64-.68-1l.58-.41.45.62.71-.3.73-.67-.45-.66.38-.26.24.35.18,0,.16-.17c-.09-.12-.17-.25-.25-.37l.69-.47q-2-2.88-3.92-5.74,2-1.35,4-2.66c5.31,7.5,11.66,14.76,16.32,14.88a.42.42,0,0,0,.21-.05l.15-.17c1.93-5.18-2.73-15.7-7.52-24.3l1.89-1.07.17.3c1.31-.59,2.62-1.15,3.93-1.71l6.08,11.28,2.38-.68c1-.5,1.92-1,2.89-1.49.73,1.46,1.47,2.91,2.21,4.37q3.69-1.86,7.44-3.59c-.85-1.87-1.71-3.75-2.57-5.62q1.92-.87,3.84-1.71c-.39-.92-.79-1.83-1.19-2.74,1.15-.5,2.29-1,3.45-1.46l-.93-2.22,1.92-.79q2.25,5.56,4.49,11.13l1.69-.67,1.26,3.19.79.06c.91-.36,1.83-.71,2.75-1.05l.63-.6c-.28-.76-.55-1.51-.83-2.26l.51-.19.92-.64-3.75-10.39c2.15-.77,4.31-1.52,6.49-2.23l-.45-1.39.73-.23c.08.24.15.49.23.73l3-.24q4-1.23,8.07-2.32c-.37-1.42-.75-2.83-1.13-4.25,1.29-.35,2.59-.68,3.89-1,.27,1.11.55,2.22.82,3.33,1.58-.39,3.16-.76,4.75-1.12l.48,2.12c1.57-.35,3.14-.69,4.72-1l2.12-1.12c-.1-.56-.21-1.11-.32-1.67,1.3-.25,2.6-.49,3.9-.71-.3-1.7-.59-3.4-.89-5.1l1.22-.21c.27,1.58.53,3.16.8,4.74l.75.4c.23,1.35,2,2.1,3.89,1.82a3,3,0,0,0,2.61-2.88c-.17-1.3-.35-2.61-.52-3.91a1.5,1.5,0,0,0,1-1.61l-.24-1.85q3.08-.39,6.16-.7c0,.4,0,.81,0,1.22l.39.35L209,22.22l1.1.49.95.61c.06.31.11.62.16.93a53.2,53.2,0,0,1,5.67-.22,2.22,2.22,0,0,0,2-1.52l1,.07.18-2.16.78.06.09-1.08,1.84.16.49.51,1.6.16.55-.39c1.39.14,2.78.29,4.17.46l.76-.51.21-1.7.34,0c0-.4.09-.8.14-1.2,1.27.16,2.53.33,3.79.51-.23,1.64-.47,3.29-.7,4.93.67.1,1.34.19,2,.3,0,.22-.07.45-.11.67l1.87.29c.05-.28.09-.56.14-.84l2.58.42.42-2.45.36.06a3.76,3.76,0,0,1,.25.31l-.15.87.45.08c-.08.47-.16.94-.25,1.41l.17.2c0,.18-.07.36-.1.54l1.88,1.15,2.14-.29.15-.59.13,0c0-.12.05-.23.07-.35l.15,0,0-.1-.09,0c0-.13.05-.26.07-.39l.2,0,.13-.08c0-.16.07-.33.1-.49l.18-.1c0-.12.05-.25.07-.37l.17,0s0-.12-.1-.14.06-.33.1-.5l.24.05c0-.1.05-.21.07-.32l.31.07,0-.17-.15,0,0-.13-.11,0c0-.14.05-.27.08-.41l.19,0c0-.12,0-.23.07-.35l.22.05.06-.26.09-.05,0-.13,0-.07.6-2.95.23.05c-.23,1.1-.45,2.21-.68,3.31q2.38.48,4.74,1c-.13.59-.27,1.19-.4,1.78,1.13.26,2.26.52,3.39.8.08-.3.15-.6.22-.89l1.15.28-1,3.89.7.17c-.09.33-.17.67-.25,1l.37.09.25-1,.57.14c-.09.33-.17.66-.26,1l.38.09c.09-.33.17-.66.26-1l1.88.49.09-.33.44.11c0-.14.07-.29.11-.44l-.43-.12c.08-.33.17-.66.26-1l2.1.57c-.65,2.34-1.29,4.68-1.94,7l1.64.81.15.05-.3,1.08,1.73.7.73.06.33-1.12.67.2c-.07.25-.14.49-.2.74l.67.38,1,.16c.08-.25.16-.51.23-.76l.45.14c-.05.13-.09.27-.13.4l.14.12.24,0c0-.14.08-.28.13-.42l.8.25c.7-2.21,1.41-4.41,2.11-6.62,1.52.48,3,1,4.54,1.5-2.64,8.8-4.45,18.27-1.68,22l.18.14h.22c5.27-1.66,10.69-11.81,14.52-20.88l2,.83c0,.1-.09.21-.13.32,1.26.67,2.51,1.35,3.76,2q-2.58,5.86-5.15,11.74c.67.48,1.34,1,2,1.45l3,1.36c-.7,1.48-1.39,3-2.09,4.43q3.75,1.77,7.42,3.66l2.84-5.48c1.25.64,2.49,1.3,3.72,2,.47-.88,1-1.75,1.42-2.62,1.1.59,2.19,1.2,3.27,1.81l1.19-2.1,1.79,1-6,10.39c.53.3,1.05.61,1.57.92l-1.74,3,.44.66,2.52,1.51.87.13,1.26-2,.46.28,1.07.34,5.88-9.36q2.91,1.83,5.76,3.74l.81-1.21.64.43-.44.64c.69.74,1.38,1.49,2.06,2.24,2.29,1.61,4.56,3.25,6.8,4.94L338.74,67c1.07.8,2.13,1.62,3.19,2.44l-2.12,2.71q1.92,1.5,3.8,3.05l-1.37,1.68c1.24,1,2.48,2,3.7,3.1l2.19,1,1.12-1.28,3,2.63c1.16-1.27,2.31-2.55,3.47-3.83l.92.83c-1.09,1.18-2.17,2.37-3.25,3.55l.15.84c-.93,1-.43,2.87,1,4.18a3.06,3.06,0,0,0,3.88.29l2.76-2.83a1.5,1.5,0,0,0,1.87-.21l1.31-1.33c1.77,1.75,3.52,3.53,5.23,5.34l4-3.78,1.37,1.45L370.38,91l1.36,1.47-2.53,2.32c.1.27.19.55.28.82.73.8,1.46,1.61,2.18,2.42l.85.45,1.81-1.59.39.45,1,.72,3.62-3.13.35.42c-.14.21-.28.42-.43.62l-1.4.87-1,.63-.49.31c.15.23.29.46.43.69l.49-.31c.34.56.68,1.11,1,1.67l-.49.29.41.7.5-.3,1-.62.38-.22.55.65L382.18,99l.91,1.11.84.7,1.69-1.36.88,1.26c-4.05,2.43-7,5.11-7.74,9,3.8,1.51,7.84.24,12.29-2.09.37.58.72,1.16,1.08,1.74l-.5.26c.65,1.27,1.3,2.54,1.94,3.81l-4.48,2.23a9.84,9.84,0,0,0,.05,2L387,118.74c2.07,3.29,4.78,4.19,5.75,3.75l5.58-2.55c.19.34.36.68.54,1l-.81.37.34.75-.72.32c-.12-.25-.23-.5-.34-.75l-.84.38.33.75-.72.32-.33-.74-.84.38c.31.69.62,1.38.92,2.08l-2.41,1.06c.43,1,.85,1.94,1.26,2.92l2.43-1c.3.7.59,1.4.88,2.1l.85-.35-.31-.75.73-.31c.1.25.21.5.31.76l.85-.36c-.1-.25-.2-.5-.31-.75l.73-.31c.11.26.21.51.32.76l.85-.35c-.11-.25-.21-.51-.32-.76l.39-.16q1.88,3.86,3.6,7.8l-6.57,2.47-2.66,1-3.1,1.17.37,1,3.64-1.35q1.95,1.78,3.89,3.62l5.5-1.92c.22.63.44,1.26.65,1.88l-.7.45a.57.57,0,0,0-.57-.12.68.68,0,0,0-.35.89.68.68,0,0,0,.82.5.57.57,0,0,0,.38-.43l.83-.07c.47,1.41.92,2.82,1.36,4.23l.9-.28c-.07-.24-.15-.47-.22-.71l.69-.22c.52,1.41,1,2.83,1.5,4.25-.66.31-1.06.47-1.06.47l-.21-.7-2.51.48c.16.53.31,1.06.47,1.58a36.68,36.68,0,0,1-4.89,1.83c-.05-.15-.09-.31-.14-.46l-1.56.46.21.72-2.08.61-1.17.33.15.53-3.57,1c0,.11.06.22.1.33l3.56-1,.15.52,1.17-.33,2.09-.59.21.72,1.56-.44c0-.15-.08-.31-.13-.46a36.46,36.46,0,0,1,5.12-1c.15.53.29,1.06.44,1.59l2.38-.92c-.06-.24-.13-.47-.19-.71,0,0,.49-.09,1.31-.18.45,1.42.88,2.86,1.29,4.29l-3.51.91-.37,1-.7.17c-.08.22-.17.43-.25.64a1.57,1.57,0,0,0,.71,2.89l.51.45.7-.17.78.68,3.7-.85c.19.72.36,1.46.54,2.19l-6.68,1.75-.12-.53-3.57,0c.11.48.22,1,.32,1.45l-10.46,2.69c0-.12-.06-.25-.08-.38h-2.49c.07.33.14.66.22,1L389.71,175c0,.17.07.34.11.51l-2.82.61-.05-.22-.82.17,0,.22-1.29.28c0,.18.08.35.11.53l1.3-.27,0,.22.83-.18-.05-.22,2.82-.6c0,.17.08.34.11.51l4.33-.75.21,1,2.26-1-.08-.38,10.66-1.81c.1.48.2,1,.29,1.45L411,173.5c0-.18-.07-.36-.11-.54l6.91-1.14c.37,1.64.72,3.3,1.06,5l-.53.09q.34,1.89.66,3.78l.59-.1c.14.79.27,1.58.41,2.37l-.61.09c.17,1.11.34,2.23.5,3.34l-.75.11c-.66.9-1.34,1.8-2,2.69l2.59,2c-.67.87-1.34,1.73-2,2.59.88.7,1.75,1.4,2.62,2.12l1.45-.15.09.89-5.41.55c.21,2.13.4,4.27.56,6.4l-11.2.83c0,.47.07.94.1,1.41l-.67,0c0-.46-.06-.93-.1-1.4l-.53,0q.24,3.24.39,6.48l.53,0c0-.47,0-.94-.07-1.4l.67,0c0,.47.05.94.07,1.41l16.56-.75c.06,1.75.1,3.5.12,5.26l-6.49.16c-.32,1.2-.65,2.39-1,3.58C415.64,220,415.94,220.79,416.24,221.61Zm3.31,32.61c0,.1,0,.2-.05.3l-.28,0c0-.1,0-.21,0-.31Zm-1-.19c0,.12,0,.24-.05.36l-.38-.06.05-.39Zm-.95,4.11a3.06,3.06,0,0,0-.05.32h0a3.06,3.06,0,0,0,.05-.32Zm-.71-.11c0,.08,0,.16,0,.23l-.37-.1,0-.19Zm-1.07-.16v.1l-.38-.11v-.05Zm-7.26,10.74v.05l0-.06Zm-.6-.2.35.12c.06.16.11.33.16.5l0,.18-1,.52c.07-.33.14-.66.2-1Zm-.21-.05v0h0Zm.14-.68,0-.13h0Zm-4.12,20.7-.38.18-.56-.25c0-.13-.09-.26-.13-.4Zm-288,99.3-.64,1c0-.13-.07-.27-.11-.4l.34-.51ZM76,76.8h.42l.41.45c0,.14,0,.28,0,.41ZM241,20.56c.06-.38.13-.76.19-1.14l.27.32c0,.2-.07.41-.11.61ZM399.07,121.43c.05.09.09.18.14.26h0Z" transform="translate(0 0)"/></svg>