<svg xmlns="http://www.w3.org/2000/svg" viewBox="0 0 1120 182.86"><defs><style>.a{fill:#fff;}</style></defs><title>title</title><path class="a" d="M84.13,102.7c-2.55,0-3.72,1.63-8.13,2.44-2.55.47-6.85,1.16-11.72,1.86.69-4.18,1.27-8.82,1.62-11.61s1.39-4.88,1.39-7.78-7.08-5.92-11.37-5.92c-3.14,0-6.27,2-6.27,3.37s2,2,4.18,3.25c2,1.16,2.78,1.74,3,3.94.34,3.84-.47,10.34-1.63,16-8.36,1.16-16.6,2.2-19.62,2.09-3.25-.12-5.69-1.05-9.52-4-1.86-1.39-3.49-1.16-3.49,1.39.12,5.46,4.3,11.61,8.6,11.61,3,0,10.21-1.27,16.25-2.44,1.86-.34,3.83-.81,5.92-1.16-5.92,19.51-18.23,33.33-31.23,43.54-3.83,3-1.39,6.39,2.79,4.07,20.55-11.61,31.81-29.26,37.73-49.58,7.2-1.63,14.05-3,16.49-3.25,3.36-.35,4.76.35,5,4.29.35,7.67-2.32,22.76-7.55,29.61a7.31,7.31,0,0,1-6.38,3.25c-2.56,0-4.3-.93-8.94-3-2.56-1.16-3.6.47-2.32,2.79,2.09,3.72,7.77,10.56,12.53,10.56,3.26,0,5.81-1,8.6-3.83,7.66-7.43,10.91-22.75,12-34.71.34-4.65,3.13-6.39,3.13-8.71C95.16,107.81,89.59,102.7,84.13,102.7Z"/><path class="a" d="M167.5,132.19c2.56,0,4.18-1.85,4.18-4.76,0-5.8-6.5-11.26-11-13.7-3-1.62-5.11.47-3.48,3.37,1.39,2.79,3.71,7.55,5,10.57S165.18,132.19,167.5,132.19Z"/><path class="a" d="M204.54,104.68c-2.32,0-4.76,1.16-4.76,2.55s1.86,2.21,3.25,3.48,1.74,2.21.93,4.42c-7.2,19.15-23.22,33.2-42.61,42.26-3.14,1.51-1.74,5.46,1.39,4.64,23.11-6.61,39.36-23.33,48.3-41.45,2-4.06,3.48-5.45,3.48-7.54C214.52,109.55,208.72,104.68,204.54,104.68Z"/><path class="a" d="M180.16,120.47c1.27,3.13,2.9,4.53,5.22,4.53,2.56,0,4.18-2,4.18-4.88,0-5.69-6.39-10.91-10.91-13.35-2.91-1.51-5,.58-3.49,3.48S178.88,117.45,180.16,120.47Z"/><path class="a" d="M331.56,94.46c-2.55,0-3.25,1.51-8.59,2.21-9.87,1.39-31.58,4.18-37.15,4.18-3.37,0-5.46-1.51-8.83-3.37-2.55-1.39-4.29-.35-3.59,2.55,1.39,5.81,7.54,11,11.49,11,3.48,0,6.5-1.51,12.07-2.9,7-1.74,24.15-5,30.89-5.57,3.13-.23,3.6,1,2.67,4.18-5.69,19.15-23.8,38.2-50.51,50.5-3.83,1.74-2.09,5.92,1.74,4.76C314.84,151.47,329.94,131.5,338,114c2.44-5.34,6-6.51,6-10C344,100.73,336.67,94.46,331.56,94.46Z"/><path class="a" d="M352.35,70.89a13.65,13.65,0,1,0,13.58,13.59A13.7,13.7,0,0,0,352.35,70.89Zm0,22.29a8.65,8.65,0,1,1,8.59-8.7A8.62,8.62,0,0,1,352.35,93.18Z"/><path class="a" d="M444.66,80.76c-2.09,0-6.51,1-6.51,3,0,1.62,2.68,2.32,5.11,3.71,2.91,1.63,3.83,2.67,4.18,4.76,1.86,11.38.12,31.82-4.29,42.73-4.65,11.49-11.5,19.27-21.37,27.4-3.13,2.56-1,5.46,2.91,3.48a55.21,55.21,0,0,0,26.24-28.44c5-11.84,6.27-26.24,6.27-37.73,0-6,.23-10.34-.12-12.31C456.5,83.78,449.88,80.76,444.66,80.76Z"/><path class="a" d="M424,135.56c.81-6.62.93-32.28.12-38.89-.47-3.72-6.39-8.25-12-8.25-2.79,0-5.81,1.16-5.81,2.67,0,1.16,1.63,1.86,4.18,3.37s4,2.32,4.76,6.27a73.31,73.31,0,0,1,1.4,15.33c0,7.89-1.75,10.91-1.75,15.21,0,4.52,2.33,8.47,4.88,8.47S423.64,138.12,424,135.56Z"/><path class="a" d="M596.18,106.07c-13,13.58-32.63,30.42-52,39-3.95,1.74-7.09,1.63-9.87.23-1.63-.81-4.65-2.67-6.27-3.6s-3.14.12-2.79,2.21c1,6.39,8.59,12.89,14,12.89,3,0,6.27-2,10.1-4.07,21.48-11.72,41-28.91,50.85-43.65C602.1,106.3,598.5,103.63,596.18,106.07Z"/><path class="a" d="M528.26,98.76A82.33,82.33,0,0,1,541,111.53c4.3,5.57,6.5,6.38,9.29,5.22,3.6-1.51,3.25-7.66,0-11.61-4-4.87-11.26-9.29-19.85-10.68C526.87,93.88,525.59,96.55,528.26,98.76Z"/><path class="a" d="M709,82.15c-2-.11-2.78,1.74-1.39,3.14,2.32,2.2,5,4.64,7,7,2.67,3.14,3.48,5.11,6.15,5.11a3.87,3.87,0,0,0,4-4.06C724.72,87.84,716.59,82.73,709,82.15Z"/><path class="a" d="M702.08,93.76c-2.67,0-5.11,2.44-8.13,2.91-8.36,1.27-13.35,2-19,1.16a28,28,0,0,0,.35-4.18c0-4.41-9.52-9.06-13.94-9.06-2.2,0-3.6.81-3.6,2s.82,1.86,3,4.07c3.83,3.83,4.3,4.64,3.83,10.8-.92,12.19-8.36,26.24-17.3,40.4-2,3.14,1.28,5.57,4.18,2.79,9.52-9.29,18.93-27.17,22.41-41,2,1.63,3.72,2.67,5.34,2.67,3.83,0,12.08-3.13,18.46-4.06,1.51-.23,2.33.58,2,2.44a85.61,85.61,0,0,1-41.45,55.73c-4.3,2.32-2.44,6.27,2,4.53,26.71-10.69,40.52-33.44,48.19-55,1.39-4,4.41-5.45,4.41-8C712.76,99.57,706.14,93.76,702.08,93.76Z"/><path class="a" d="M718.21,72.52c-2.2,0-3,2-1.16,3.36a58.9,58.9,0,0,1,8.59,7.2c2.21,2.44,3.37,3.37,5.11,3.37a3.72,3.72,0,0,0,3.83-4.06C734.58,76.46,725.64,72.63,718.21,72.52Z"/><path class="a" d="M806.92,88.07c-11,0-21.59,4.3-28.44,10.34-7.66,6.85-13.35,17.65-12.19,32.27,1,13.7,7.08,22.18,13.23,22.18,13.94,0,33.33-23.1,40.06-41.68a56.13,56.13,0,0,0,3.25-14.28c11.73,4.87,18,15.21,18,27.63,0,19-13,27.52-33.09,31.47-3.6.69-3.37,4.29.69,4.29,23.92,0,41.8-11.49,41.8-33.79C850.23,105.61,834.67,88.07,806.92,88.07Zm7.32,16.14c-5.46,15.56-22.18,38.2-33.32,38.2-3.37,0-6.5-5.46-7.09-14.4-.69-11.49,3-19.73,9.18-25.54,5.69-5.34,13.58-8.59,23.57-8.59a51.55,51.55,0,0,1,9.75.93A36.15,36.15,0,0,1,814.24,104.21Z"/><path class="a" d="M972.73,155.07c-1.86,0-5.34,4.52-7.9,8.36H937.2V149.15h23.92c4.18,0,6.15-.93,6.15-2.56,0-2.67-8.13-9.4-10.33-9.4-1.63,0-4.65,3.83-7,7.31H937.2V132.66H967c4.41,0,6.5-1,6.39-2.67,0-2.79-8.36-9.75-10.69-9.75-1.74,0-5,4.18-7.43,7.77H937.2v-6.73c3.6-.81,6.15-1.74,6.15-4.3,0-3-11.49-3.36-13.46-3.36-1,0-1.74.58-1.63,1.62.35,2.79.58,7.32.81,12.77H909.8c1.16-1.74,2.09-3.36,2.9-4.76,3.14.24,4.76-.23,4.88-1.85.12-1.86-5.11-4.76-8.82-6.16a3.35,3.35,0,0,0,.11-1v-2.79H958v2c0,1.85.7,3.94,3.37,3.94,3,0,4.76-.81,4.76-4.41,0-4.06-.23-23.34-.11-31.23,2-.7,3.83-1.74,3.83-3.25,0-2.56-6.5-7.43-8.71-7.43-1.16,0-3,2.2-4.65,4.29H911.08A26.35,26.35,0,0,0,902,71.12a1.35,1.35,0,0,0-1.74,1.51c1.16,10.57.46,34.25.46,42,0,2,1,3.14,3,3.14h.93c-3.36,10.1-10.56,21-20.78,30.65-2.32,2.44-.23,4.76,2.67,3.13,8.48-5,15.09-12.42,20-18.92h22.64c.12,3.71.12,7.78.23,11.84H904.23c-1.51,0-2.56.58-2.56,2.32s1.05,2.33,2.56,2.33h25.19c0,5.1,0,10-.11,14.28H885.07c-1.51,0-2.55.58-2.55,2.32s1,2.32,2.55,2.32h92.19c4.64,0,6.73-1.16,6.73-2.79C984,162.26,975.05,155.07,972.73,155.07ZM909,80h49.23V91.09H908.76C908.87,87.38,908.87,82.5,909,80ZM958.1,95.74l-.12,11H908.87l-.11-11Z"/><path class="a" d="M1098.59,154.49c-2.09,0-5.68,5-8.47,8.94h-28.45v-21.6c2.09-.7,3.14-1.51,3.14-2.79v-.34h26.59c4.52,0,6.61-1,6.61-2.67,0-3-8.7-10.22-11-10.22-1.85,0-5.22,4.53-7.77,8.24h-56.9c-1.51,0-2.55.58-2.55,2.32s1,2.33,2.55,2.33h30.54v24.73h-44.58c-1.51,0-2.56.58-2.56,2.32s1,2.32,2.56,2.32h95c4.88,0,7.08-1.16,7.08-2.9C1110.32,162,1101,154.49,1098.59,154.49Z"/><path class="a" d="M1010.94,106.19c6,0,11.37-6.74,11.84-15.33v-2h70.71a109,109,0,0,1-6.62,11c-1.63,2.32.81,4.41,3.25,2.78a109.45,109.45,0,0,0,12.42-10.1c3.25-.93,6.27-1.27,6.27-3.48.12-3.6-7.66-10-9.64-10-1.39,0-4.17,2.67-6.26,5.11h-31.58v-8.7c3.59-.82,6.15-1.75,6.15-4.18,0-3.14-11.38-3.49-13.35-3.49a1.46,1.46,0,0,0-1.63,1.74,143.13,143.13,0,0,1,.35,14.63H1022.2a31.88,31.88,0,0,0-2-6.15c-1.27-2.67-4.29-2.09-4.18.7.12,3.36.7,7.43-.58,10.33-2.9,7.08-9.17,7.2-9.17,12.42A4.52,4.52,0,0,0,1010.94,106.19Z"/><path class="a" d="M1011.86,129.76c14.29-2.67,22.88-7.67,28.33-13.7,4.3-4.65,6.85-10.8,8.25-17.65,3.83-.35,5.57-1.16,5.57-3.14,0-2.44-6.85-4.41-11.84-4.41-1.86,0-2.09.81-2.21,2.56-.81,8.12-2.67,14-6.85,19-4.41,5.34-11.26,9.4-22.41,13.23C1007.68,126.85,1008.73,130.45,1011.86,129.76Z"/><path class="a" d="M1078,94.11c0-2.78-9.17-3.6-11.37-3.6-1.63,0-2.09.47-2,2.09.35,5.92.12,15.1,0,18.7,0,8.82,2.21,10.21,19.39,10.33s22.64-2.9,22.64-6-2.09-1.74-1.62-10.56c.11-2.79-2.79-3.14-3.6-.82a38.91,38.91,0,0,1-2.91,6.62c-1.51,2-5,3.37-14.63,3.25-10.79-.11-11.14-.69-11.14-4.29s0-8.71.23-12.89C1076.19,96.43,1078,95.62,1078,94.11Z"/><path class="a" d="M995.78,56.64H0V182.86H1120V56.64Zm122.22,2V180.86H995.78V58.64ZM2,180.86V58.64H124.22V180.86ZM126.22,58.64H248.44V180.86H126.22ZM250.44,180.86V58.64H372.67V180.86ZM374.67,58.64H496.89V180.86H374.67ZM498.89,180.86V58.64H621.11V180.86Zm124.22,0V58.64H745.33V180.86Zm124.22,0V58.64H869.56V180.86Zm124.23,0V58.64H993.78V180.86Z"/><path class="a" d="M264.42,21.09A10.85,10.85,0,0,1,262,22.28l2,1.61c6.85-3.41,7.5-8.33,7.5-15.61h-2.42a16.22,16.22,0,0,1,.1,1.93C269.17,14.7,268.58,18.54,264.42,21.09Z"/><path class="a" d="M278.87,5.67a18.07,18.07,0,0,1-5.85,6l1.77,1.42a25.92,25.92,0,0,0,6.69-7.41c.19-.3.54-.7.73-1l-1.32-1.26a13.32,13.32,0,0,1-1.88.16H263.58a27.71,27.71,0,0,1-3.06-.22V5.83a29.77,29.77,0,0,1,3.06-.16Z"/><path class="a" d="M299.7,10.69V20.85a22.77,22.77,0,0,1-.17,2.88h2.64a20,20,0,0,1-.16-2.88V9.35a42.89,42.89,0,0,0,7.2-5.83l-1.78-1.61a29.64,29.64,0,0,1-7.06,5.94,42.73,42.73,0,0,1-12,4.94l1.23,2.1A53.78,53.78,0,0,0,299.7,10.69Z"/><path class="a" d="M338.36,6.18a36.49,36.49,0,0,0-2.53-4l-1.47.7a29.24,29.24,0,0,1,2.49,4Z"/><path class="a" d="M335,7.6a35.88,35.88,0,0,0-2.45-4l-1.48.67a27.48,27.48,0,0,1,2.4,4.08Z"/><path class="a" d="M323.15,20.88a28.84,28.84,0,0,1-.16,3.17h2.58a30.59,30.59,0,0,1-.16-3.17V12a68.34,68.34,0,0,1,10.53,4.3l.94-2.29a87.68,87.68,0,0,0-11.47-4.4V5.24c0-.81.08-2,.16-2.79h-2.63a17,17,0,0,1,.21,2.79Z"/><path class="a" d="M352.41,16.18c.72-2.69.83-8.44.83-11.42a18.68,18.68,0,0,1,.14-1.94H350.9a9.77,9.77,0,0,1,.19,2c0,3,0,8.33-.8,10.8a12.81,12.81,0,0,1-4.68,6.62l2,1.34A14.89,14.89,0,0,0,352.41,16.18Z"/><path class="a" d="M357.92,22.33l1.42,1.18a6.2,6.2,0,0,1,.91-.62,27,27,0,0,0,9.17-7.44l-1.29-1.83a20.28,20.28,0,0,1-7.82,6.61V4.73a16.28,16.28,0,0,1,.11-2h-2.48a12.89,12.89,0,0,1,.16,2v16.1A6.85,6.85,0,0,1,357.92,22.33Z"/><path class="a" d="M394,6.74a33.14,33.14,0,0,1-8.39,9.33c-1.82-1.64-4-3.41-5-4.14l-1.75,1.4A63.31,63.31,0,0,1,385,18.62a64.61,64.61,0,0,1,4.83,5.48l2-1.56c-1.07-1.31-3-3.33-4.59-4.94A42.17,42.17,0,0,0,397,6.69a7,7,0,0,1,.67-.83L396,4.49a5.61,5.61,0,0,1-1.72.21h-16a20.24,20.24,0,0,1-2.74-.21V6.91a26.76,26.76,0,0,1,2.74-.17Z"/><path class="a" d="M404.29,21.69l1.72,1.8a34.21,34.21,0,0,0,10.48-7.85,61.39,61.39,0,0,1,7.39,8L425.76,22a77.38,77.38,0,0,0-7.85-8,34.23,34.23,0,0,0,4.52-7.87,7.28,7.28,0,0,1,.67-1.18l-1.37-1a7.36,7.36,0,0,1-2,.24H409.34a26.77,26.77,0,0,1-2.71-.19V6.37c.29,0,1.77-.14,2.71-.14h10.48a23.68,23.68,0,0,1-4.46,7.47A30.91,30.91,0,0,1,404.29,21.69Z"/><path class="a" d="M441.82,6.77H451A22.56,22.56,0,0,1,447.49,14c-2.09-1.27-4.35-2.56-5.91-3.36l-1.37,1.58c1.51.84,3.76,2.18,5.89,3.55a23.51,23.51,0,0,1-10.62,6.69l1.94,1.67A25.47,25.47,0,0,0,448,16.93c1,.7,1.91,1.34,2.55,1.85L452,16.85c-.67-.49-1.59-1.1-2.61-1.75a27.24,27.24,0,0,0,3.93-8,12.61,12.61,0,0,1,.61-1.45L452.17,4.6a5,5,0,0,1-1.78.26h-7.33c.21-.35.4-.67.56-1,.27-.51.76-1.42,1.19-2.12L442.39,1a11.73,11.73,0,0,1-.86,2.15,24,24,0,0,1-8.63,9.32l1.8,1.4A29.14,29.14,0,0,0,441.82,6.77Z"/><path class="a" d="M480.59,13.76c1.21,0,2.34.11,2.88.13V11.26c-.59.05-1.56.13-2.9.13H465.84c-1.5,0-2.93-.08-3.73-.13v2.63c.83-.08,2.25-.13,3.73-.13Z"/><path class="a" d="M492.31,21.44l1.23,2.21a33.35,33.35,0,0,0,8.92-3.34,31.44,31.44,0,0,0,10.32-9.62l-1.29-2.2a27.48,27.48,0,0,1-10.18,9.84A28.76,28.76,0,0,1,492.31,21.44Z"/><path class="a" d="M498.19,11.93c-1.18-.86-4.3-2.77-5.91-3.63l-1.18,1.83A57.25,57.25,0,0,1,497,13.81Z"/><path class="a" d="M502.17,6.05c-1.16-.86-4.25-2.91-5.83-3.79l-1.21,1.8c1.58.91,4.48,2.85,5.77,3.81Z"/><path class="a" d="M530.08,8.76a58.41,58.41,0,0,0-6.85-5.56L521.7,4.84a55.72,55.72,0,0,1,6.69,5.61Z"/><path class="a" d="M532.9,19.21a26.69,26.69,0,0,0,9-9.54l-1.29-2.28a25.36,25.36,0,0,1-9,9.89,27.93,27.93,0,0,1-10.75,3.92l1.42,2.2A28.84,28.84,0,0,0,532.9,19.21Z"/><path class="a" d="M563.21,5.4c.78,0,1.72,0,2.5.08V3.25a19.41,19.41,0,0,1-2.5.16h-9.3a23.43,23.43,0,0,1-2.44-.16V5.48c.7-.05,1.58-.08,2.47-.08Z"/><path class="a" d="M558.67,12.17a13,13,0,0,1-1.56,6.67A11.13,11.13,0,0,1,552,23l2,1.48a13.14,13.14,0,0,0,5.29-4.92,16.22,16.22,0,0,0,1.59-7.34h7.31c.64,0,1.5,0,2.09.06V10a19.29,19.29,0,0,1-2.09.11H550.63c-.83,0-1.61-.05-2.33-.11v2.21c.72-.06,1.5-.06,2.33-.06Z"/><path class="a" d="M572.32,3.65A35.73,35.73,0,0,0,570.06,0l-1.42.59a25.51,25.51,0,0,1,2.23,3.71Z"/><path class="a" d="M569.31,4.76a35.78,35.78,0,0,0-2.2-3.68l-1.43.61a28.82,28.82,0,0,1,2.18,3.71Z"/><path class="a" d="M580.86,22l1.56,1.35a3.75,3.75,0,0,1,1.13-.49c6.69-2,12.22-5.26,15.72-9.59l-1.21-1.88c-3.33,4.33-9.57,7.87-14.7,9.16V5.35a17,17,0,0,1,.19-2.45h-2.64a18.88,18.88,0,0,1,.22,2.45V20.72A2.93,2.93,0,0,1,580.86,22Z"/><path class="a" d="M624.47,11.23a13.78,13.78,0,0,1-3.2,5.94,18.09,18.09,0,0,1-9.46,4.92L613.48,24a19.58,19.58,0,0,0,9.62-5.62A18.55,18.55,0,0,0,627,10.75a4.63,4.63,0,0,1,.35-.78l-1.53-1a3.6,3.6,0,0,1-1.48.22H610.2c-.73,0-1.64-.06-2.61-.16v2.25c.94-.05,2-.08,2.61-.08Z"/><path class="a" d="M622.94,5c.91,0,1.82,0,2.47.09V2.88A18,18,0,0,1,623,3H612.4A18,18,0,0,1,610,2.88V5.11c.73-.06,1.59-.09,2.42-.09Z"/><path class="a" d="M637.82,20.34a14.15,14.15,0,0,1-2.74,2L637,23.92c4.49-3.09,7.28-7.15,8.25-14.89h7.53c0,2.87-.35,9.48-1.37,11.55a1.47,1.47,0,0,1-1.56.86,32.28,32.28,0,0,1-4-.29l.27,2.23c1.4.11,3,.19,4.33.19a2.75,2.75,0,0,0,2.87-1.64c1.21-2.58,1.53-10.4,1.64-13a8.62,8.62,0,0,1,.14-1.32l-1.51-.75a9.8,9.8,0,0,1-1.72.13h-6.39c0-.88.1-1.8.13-2.76,0-.65.08-1.59.16-2.18h-2.52a16.76,16.76,0,0,1,.18,2.23c0,.94,0,1.85-.1,2.71H638.6c-1,0-2.13,0-3.07-.13V9.14A27.81,27.81,0,0,1,638.62,9h4.52C642.41,14.56,640.48,18,637.82,20.34Z"/><path class="a" d="M655.1,5.51a41.66,41.66,0,0,0-2.21-3.68l-1.42.62a34.1,34.1,0,0,1,2.18,3.7Z"/><path class="a" d="M658.08,4.41A32.61,32.61,0,0,0,655.85.75l-1.43.62a27.07,27.07,0,0,1,2.23,3.68Z"/><path class="a" d="M682.77,13.76c1.21,0,2.34.11,2.88.13V11.26c-.6.05-1.56.13-2.91.13H668c-1.51,0-2.93-.08-3.74-.13v2.63c.84-.08,2.26-.13,3.74-.13Z"/><path class="a" d="M704.5,22.33l1.43,1.18a6.2,6.2,0,0,1,.91-.62A26.92,26.92,0,0,0,716,15.45l-1.29-1.83a20.26,20.26,0,0,1-7.81,6.61V4.73c0-1,.08-1.77.1-2h-2.47a12.89,12.89,0,0,1,.16,2v16.1A6.27,6.27,0,0,1,704.5,22.33Z"/><path class="a" d="M699,16.18c.72-2.69.83-8.44.83-11.42,0-.81.11-1.62.13-1.94h-2.47a9.77,9.77,0,0,1,.19,2c0,3,0,8.33-.81,10.8a12.79,12.79,0,0,1-4.67,6.62l2,1.34A14.84,14.84,0,0,0,699,16.18Z"/><path class="a" d="M744.94,3.74A33,33,0,0,0,742.68.08L741.29.7a30.85,30.85,0,0,1,2.2,3.68Z"/><path class="a" d="M721.46,22.17l1.72,1.77a33.87,33.87,0,0,0,10.48-7.84,61.29,61.29,0,0,1,7.38,8l1.89-1.64a78.38,78.38,0,0,0-7.85-8,33.56,33.56,0,0,0,4.51-7.9,8.09,8.09,0,0,1,.68-1.16L738.9,4.35a7.13,7.13,0,0,1-2,.22H726.51c-.81,0-2.34-.11-2.72-.16V6.83c.3,0,1.78-.14,2.72-.14H737a23.88,23.88,0,0,1-4.46,7.5A30.76,30.76,0,0,1,721.46,22.17Z"/><path class="a" d="M741.82,4.7A37.3,37.3,0,0,0,739.65,1l-1.43.62a32.62,32.62,0,0,1,2.15,3.71Z"/><path class="a" d="M759.5,7.79H753V25h2V23.24h13.52V25h2.07V7.79h-9.06c.35-1.21.7-2.6,1-4h10.73v-2H750v2h10.29C760.07,5.13,759.77,6.61,759.5,7.79Zm9,13.6H755v-5h13.52Zm0-11.72v4.87H755V9.67Z"/><rect class="a" x="783.79" y="9.14" width="13.46" height="1.77"/><path class="a" d="M790.45,2.42a36,36,0,0,0,11.37,9.38,8.88,8.88,0,0,1,1.31-1.72A32,32,0,0,1,791.34.48h-2a30.06,30.06,0,0,1-11.26,9.89A7.09,7.09,0,0,1,779.3,12,33,33,0,0,0,790.45,2.42Z"/><path class="a" d="M798.73,25V14.27H782.39V25h2v-1.1h12.34V25Zm-14.38-2.9v-6h12.34v6Z"/><path class="a" d="M819.33,2.42A36.06,36.06,0,0,0,830.7,11.8,8.54,8.54,0,0,1,832,10.08a32,32,0,0,1-11.8-9.6h-2A30.22,30.22,0,0,1,807,10.37,7.33,7.33,0,0,1,808.18,12,33,33,0,0,0,819.33,2.42Z"/><path class="a" d="M827.61,25V14.27H811.27V25h2v-1.1h12.33V25Zm-14.37-2.9v-6h12.33v6Z"/><rect class="a" x="812.67" y="9.14" width="13.46" height="1.77"/><path class="a" d="M844.62,12.39a29.51,29.51,0,0,0,3.81-5.59h1.86V24.94h2V18.43h8V16.55h-8V12.5H860V10.64H852.3V6.8h8.28V4.89H849.4c.54-1.18,1.05-2.39,1.48-3.63L849,.75A28.43,28.43,0,0,1,843.06,11,15.15,15.15,0,0,1,844.62,12.39Z"/><path class="a" d="M839.73,10V24.91h2v-18a42.52,42.52,0,0,0,2.75-5.75L842.55.51a30,30,0,0,1-6.64,10.67,9.89,9.89,0,0,1,1.16,2A27.87,27.87,0,0,0,839.73,10Z"/></svg>